HIERARCHY
ROOT Hips
{
  OFFSET -102.467 93.6631 130.069
  CHANNELS 6 Xposition Yposition Zposition Zrotation Xrotation Yrotation
  JOINT LeftUpLeg
  {
    OFFSET 8.64259 1.95398 -2.38835
    CHANNELS 3 Zrotation Xrotation Yrotation
    JOINT LeftLeg
    {
      OFFSET 43.7702 0 0
      CHANNELS 3 Zrotation Xrotation Yrotation
      JOINT LeftFoot
      {
        OFFSET 40.6238 0 0
        CHANNELS 3 Zrotation Xrotation Yrotation
        JOINT LeftToeBase
        {
          OFFSET 12.7242 0 0
          CHANNELS 3 Zrotation Xrotation Yrotation
          End Site
          {
            OFFSET 0 0 0
          }
        }
      }
    }
  }
  JOINT RightUpLeg
  {
    OFFSET -8.2249 1.95398 -2.59336
    CHANNELS 3 Zrotation Xrotation Yrotation
    JOINT RightLeg
    {
      OFFSET 43.5653 0 0
      CHANNELS 3 Zrotation Xrotation Yrotation
      JOINT RightFoot
      {
        OFFSET 40.6238 0 0
        CHANNELS 3 Zrotation Xrotation Yrotation
        JOINT RightToeBase
        {
          OFFSET 12.7242 0 0
          CHANNELS 3 Zrotation Xrotation Yrotation
          End Site
          {
            OFFSET 0 0 0
          }
        }
      }
    }
  }
  JOINT Spine
  {
    OFFSET 0.165834 0.87714 6.61349
    CHANNELS 3 Zrotation Xrotation Yrotation
    JOINT Spine1
    {
      OFFSET 7.38963 1.71661e-005 0
      CHANNELS 3 Zrotation Xrotation Yrotation
      JOINT Spine2
      {
        OFFSET 11.9445 1.14441e-005 0
        CHANNELS 3 Zrotation Xrotation Yrotation
        JOINT Spine3
        {
          OFFSET 14.7254 4.19617e-005 0
          CHANNELS 3 Zrotation Xrotation Yrotation
          JOINT Spine4
          {
            OFFSET 10.9679 0 0
            CHANNELS 3 Zrotation Xrotation Yrotation
            JOINT RightShoulder
            {
              OFFSET 2.46616 -1.6653 3.69651
              CHANNELS 3 Zrotation Xrotation Yrotation
              JOINT RightArm
              {
                OFFSET 13.0012 0 0
                CHANNELS 3 Zrotation Xrotation Yrotation
                JOINT RightForeArm
                {
                  OFFSET 28.7848 1.52588e-005 0
                  CHANNELS 3 Zrotation Xrotation Yrotation
                  JOINT RightHand
                  {
                    OFFSET 26.5688 1.52588e-005 0
                    CHANNELS 3 Zrotation Xrotation Yrotation
                    End Site
                    {
                      OFFSET 0 0 0
                    }
                  }
                }
              }
            }
            JOINT LeftShoulder
            {
              OFFSET 2.38034 -1.29275 -3.7523
              CHANNELS 3 Zrotation Xrotation Yrotation
              JOINT LeftArm
              {
                OFFSET 16.3182 6.10351e-005 0
                CHANNELS 3 Zrotation Xrotation Yrotation
                JOINT LeftForeArm
                {
                  OFFSET 27.0901 0 0
                  CHANNELS 3 Zrotation Xrotation Yrotation
                  JOINT LeftHand
                  {
                    OFFSET 24.5451 1.52588e-005 0
                    CHANNELS 3 Zrotation Xrotation Yrotation
                    End Site
                    {
                      OFFSET 0 0 0
                    }
                  }
                }
              }
            }
            JOINT Neck
            {
              OFFSET 5.0226 -0.0266342 0
              CHANNELS 3 Zrotation Xrotation Yrotation
              JOINT Head
              {
                OFFSET 6.69363 2.86102e-005 0
                CHANNELS 3 Zrotation Xrotation Yrotation
                End Site
                {
                  OFFSET 0 0 0
                }
              }
            }
          }
        }
      }
    }
  }
}
MOTION
Frames:	10
Frame Time:	0.0416667
-0.592219 98.4907 -7.23905 116.19 -84.1865 115.939 -174.295 2.71405 91.0762 -14.7683 5.30387 2.00503 66.7 2.97666 -1.55993 27.872 0.286337 3.16848 174.367 3.1983 87.0403 -16.3168 -4.75225 0.0645038 67.8003 -2.50484 2.1493 28.0031 0.353132 1.09102 -0.302332 7.21376 -90.2017 12.4455 -0.696581 -0.322988 0.774662 -0.710118 -0.292019 -21.7612 -0.567305 -0.517406 -1.7486 -0.56731 -0.517419 100.474 -52.7029 -84.7223 29.4808 -11.3473 -5.97355 -0.0533065 -3.29871 -12.9103 -10.7719 -0.361953 -1.32632 -80.2394 -54.2161 93.4063 -28.5471 6.88498 -17.9856 3.58263 34.8693 -7.83988 -5.50639 -0.0257624 -6.73721 11.4308 0.147669 4.6743 -20.6592 -0.206651 -5.25994 
-0.545981 98.4785 -7.14175 117.21 -83.9899 117.081 -174.111 2.33371 91.2036 -14.3702 4.16699 1.98255 67.359 3.14823 -2.04195 26.5735 0.308208 1.19532 174.352 2.74618 87.1238 -15.9456 -4.72157 0.087716 67.7797 -2.51685 2.29621 28.0708 0.281643 0.730011 -0.29977 7.23104 -90.2259 12.4107 -0.702969 -0.370699 0.739869 -0.718601 -0.339415 -21.7959 -0.559064 -0.564843 -1.78326 -0.559054 -0.564841 100.801 -52.5582 -84.2321 29.4736 -11.0361 -6.11897 -0.584279 -5.27312 -13.1355 -11.1879 -0.450892 -0.513118 -80.3707 -54.4101 93.2242 -27.7672 8.6606 -17.9749 0.605501 26.5245 -5.77289 0.091432 -0.0906038 -3.92787 10.5113 -0.209296 3.85278 -18.9954 -0.570974 -4.01045 
-0.470364 98.4761 -7.05288 118.907 -84.2951 118.78 -174.133 2.21677 91.1684 -14.3812 3.81779 2.01558 67.3461 2.95909 -2.34522 26.6386 0.322189 1.60996 174.306 2.83241 86.9854 -16.1482 -4.81091 0.0852194 68.0195 -2.24157 2.97745 27.4341 0.413191 0.634 -0.258203 7.23257 -90.2384 12.4076 -0.626293 -0.404446 0.73673 -0.643487 -0.376492 -21.7987 -0.475795 -0.573979 -1.78605 -0.475788 -0.573976 100.876 -52.4572 -84.1218 29.3555 -11.2056 -6.10733 -0.501299 -4.87097 -13.3334 -11.0456 -0.476538 -0.16828 -80.325 -54.7745 93.3057 -27.4984 8.52944 -18.1159 0.460241 26.0873 -5.43823 0.314831 -0.0979692 -4.69372 10.6148 -0.295263 4.09313 -18.9282 -0.742768 -3.80968 
-0.481773 98.4702 -7.1473 116.648 -84.3803 116.717 -174.125 2.72068 91.2933 -14.746 4.0241 2.03088 67.2501 2.94908 -2.1107 27.1026 0.280241 1.712 174.389 3.01603 87.1999 -15.9266 -4.87671 0.168696 67.6835 -2.28562 2.67244 27.8449 0.315522 0.612451 -0.255369 7.20562 -90.2559 12.4613 -0.62907 -0.438891 0.790463 -0.647773 -0.410798 -21.7449 -0.468089 -0.607668 -1.73221 -0.468083 -0.607672 100.853 -52.5194 -84.1548 29.3265 -11.1839 -6.09717 -0.536019 -4.94523 -13.3881 -11.0349 -0.479148 -0.137258 -80.3052 -54.5264 93.3237 -27.7227 8.48316 -18.1825 0.531699 26.2419 -5.42868 -0.0181558 -0.0943244 -4.72804 10.5461 -0.158384 4.09382 -18.966 -0.604804 -3.81187 
-0.460278 98.4818 -7.1422 116.33 -84.217 116.38 -174.197 2.59649 91.249 -14.5679 4.11932 2.08634 67.3562 3.06116 -2.13325 26.8011 0.313054 1.76482 174.364 2.86293 87.1934 -15.7756 -5.02817 0.185253 67.5361 -2.49143 2.17477 28.4024 0.161612 0.453104 -0.267807 7.20431 -90.266 12.4638 -0.658582 -0.455626 0.79296 -0.678004 -0.426187 -21.7424 -0.491215 -0.632484 -1.72974 -0.491216 -0.632487 100.715 -52.4408 -84.3657 29.3814 -11.0791 -6.03781 -0.575478 -5.03931 -13.2549 -11.0904 -0.444794 -0.538438 -80.0887 -54.5736 93.6378 -27.6914 8.56259 -18.2189 0.573655 26.0827 -5.63893 -0.259838 -0.0928382 -4.80833 10.4767 0.0891249 4.37392 -19.1672 -0.390801 -4.01284 
-0.457027 98.471 -7.15359 116.595 -84.0579 116.44 -174.269 2.50053 91.0729 -14.5767 3.98913 2.06062 67.4083 3.07334 -2.28059 26.636 0.321474 1.59433 174.352 2.98116 87.031 -16.215 -4.6637 0.060414 67.8655 -2.42457 2.42624 27.9049 0.355482 0.961131 -0.269665 7.21228 -90.2436 12.4482 -0.651611 -0.411717 0.777314 -0.669093 -0.382644 -21.7582 -0.497749 -0.588523 -1.74552 -0.497745 -0.588519 100.76 -52.5302 -84.2954 29.2145 -11.2319 -6.06371 -0.465509 -4.73585 -13.3094 -11.1721 -0.448649 -0.531272 -80.1071 -54.5904 93.612 -27.6202 8.70672 -18.2266 0.570435 25.8759 -5.7635 0.12416 -0.091738 -4.6356 10.5411 0.172065 4.44165 -19.3355 -0.31473 -4.06584 
-0.463897 98.4726 -7.12915 118.04 -83.8479 117.669 -174.241 2.13772 90.9482 -14.3328 4.07388 1.98786 67.2911 3.09755 -2.2347 26.6761 0.303224 1.29246 174.229 2.88174 86.7944 -16.5089 -4.62604 0.0302529 68.002 -2.30021 2.70344 27.8724 0.335201 0.782854 -0.290003 7.23113 -90.2208 12.4106 -0.681136 -0.3631 0.739756 -0.696452 -0.332775 -21.796 -0.540523 -0.551027 -1.78334 -0.540521 -0.551024 100.496 -52.583 -84.6932 29.2425 -11.022 -6.05458 -0.498883 -4.67201 -13.3446 -10.9506 -0.497612 0.105809 -80.0096 -54.5224 93.7504 -27.5564 8.70985 -18.2023 0.4738 25.7908 -5.64783 0.104294 -0.0909475 -4.71804 10.6248 0.253389 4.0677 -19.7175 -0.219032 -3.47169 
-0.443594 98.4634 -7.10588 119.204 -83.7829 118.796 -174.304 2.00729 90.8731 -14.4354 4.19349 2.03648 67.1545 2.97611 -2.26231 26.8983 0.317964 2.05838 174.172 2.76212 86.7112 -16.6045 -4.44232 0.0223481 68.236 -2.17749 3.10467 27.4655 0.388921 0.519154 -0.261309 7.2524 -90.2298 12.3679 -0.628345 -0.387362 0.697076 -0.644783 -0.359348 -21.8384 -0.482883 -0.558297 -1.82577 -0.482872 -0.558299 100.669 -52.4905 -84.4342 29.2657 -11.1268 -6.34276 -0.413689 -4.78943 -13.0173 -11.1644 -0.495059 -0.0258569 -80.0917 -54.6985 93.6386 -27.35 8.8341 -18.4063 0.219475 25.6772 -5.32411 0.016862 -0.0904794 -4.8934 10.9105 0.337365 3.95096 -20.3432 -0.12347 -3.31133 
-0.461522 98.4839 -7.12505 118.396 -83.8547 118.059 -174.307 2.14283 90.9215 -14.4156 4.13043 2.05331 67.1809 3.09025 -2.08623 26.8222 0.30043 1.54545 174.162 2.81339 86.7724 -16.4252 -4.82288 0.109449 67.9383 -2.32203 2.66929 28.015 0.232599 0.331521 -0.248727 7.23876 -90.2512 12.3951 -0.61357 -0.431667 0.724253 -0.631974 -0.404254 -21.811 -0.455468 -0.596115 -1.7984 -0.455476 -0.596129 100.633 -52.4374 -84.4896 29.1616 -11.3286 -6.31774 -0.269889 -4.14245 -13.1884 -10.9494 -0.480563 -0.0809544 -79.9818 -55.0421 93.8091 -27.0563 8.72231 -18.4347 0.25995 25.829 -5.38512 -0.405052 -0.0904127 -4.49274 10.9041 0.702414 4.0807 -20.9555 0.250372 -3.49869 
-0.504569 98.4629 -7.08319 119.124 -83.7097 118.621 -174.338 1.86991 90.8281 -14.2198 4.25106 2.04008 67.2109 3.12788 -2.11957 26.7837 0.313656 1.73447 174.15 2.82472 86.6788 -16.8094 -4.67036 0.0293641 68.169 -2.34327 2.64666 28.0978 0.225976 0.413548 -0.252731 7.24942 -90.2399 12.374 -0.616061 -0.408764 0.703103 -0.633459 -0.38126 -21.8323 -0.464741 -0.575021 -1.81964 -0.464738 -0.575023 100.57 -52.4566 -84.5843 29.2644 -11.105 -6.25602 -0.282943 -3.94513 -13.3277 -10.9448 -0.500234 0.137224 -80.0431 -54.9693 93.719 -27.2494 8.45436 -18.0555 0.717744 25.7063 -5.93752 -0.526956 -0.0905807 -4.73565 10.6682 2.34925 2.80196 -21.1701 1.83488 -1.21877 
